<svg width="117" height="65" viewBox="0 0 117 65" fill="none" xmlns="http://www.w3.org/2000/svg">
<g opacity="0.5">
<path d="M36.3396 18.4555C36.3153 20.2565 35.7859 22.6951 33.304 23.6406C34.0812 21.5483 34.1998 19.5459 33.6492 17.6742C32.9133 15.1613 30.4579 13.1984 28.8241 12.1295C28.2661 11.7629 27.5504 12.2182 27.5609 12.948C27.5821 14.2805 27.2242 16.2278 25.4867 18.1942C23.1721 20.8113 22 23.5159 22 26.2313C22 29.6405 24.1176 34 28.3529 34C24.0742 29.1576 27.2941 25.033 27.2941 25.033C28.1899 32.1198 32.5755 34 34.7059 34C36.5175 34 40 32.5021 40 26.2733C40 22.5189 38.5896 19.6693 37.4747 18.0061C37.1073 17.4573 36.3481 17.7688 36.3396 18.4555Z" fill="#A0AEC0"/>
<path d="M14.52 26.84C14.52 25.08 14.2267 23.7867 13.64 22.96C13.08 22.1333 12.0667 21.72 10.6 21.72H6.88V32.16C7.25333 32.1867 7.65333 32.2133 8.08 32.24C8.45333 32.2667 8.85333 32.2933 9.28 32.32C9.70667 32.3467 10.1333 32.36 10.56 32.36C11.0933 32.36 11.6 32.2933 12.08 32.16C12.56 32.0267 12.9733 31.76 13.32 31.36C13.6933 30.96 13.9867 30.4 14.2 29.68C14.4133 28.96 14.52 28.0133 14.52 26.84ZM13.92 14.32C13.92 12.6667 13.6667 11.4667 13.16 10.72C12.68 9.97333 11.6933 9.6 10.2 9.6C9.24 9.6 8.45333 9.64 7.84 9.72C7.49333 9.77333 7.17333 9.81333 6.88 9.84V18.84H10.2C10.6 18.84 11.0133 18.8 11.44 18.72C11.8933 18.64 12.2933 18.4533 12.64 18.16C13.0133 17.8667 13.32 17.4267 13.56 16.84C13.8 16.2267 13.92 15.3867 13.92 14.32ZM18.08 26.56C18.08 28.24 17.8933 29.64 17.52 30.76C17.1467 31.8533 16.6133 32.7467 15.92 33.44C15.2533 34.1067 14.4267 34.5867 13.44 34.88C12.48 35.1467 11.4 35.28 10.2 35.28C9.34667 35.28 8.52 35.2667 7.72 35.24C6.92 35.24 6.2 35.2133 5.56 35.16C4.81333 35.1067 4.09333 35.0533 3.4 35V7C4.14667 6.94667 4.88 6.89333 5.6 6.84C6.21333 6.78667 6.89333 6.76 7.64 6.76C8.38667 6.73333 9.08 6.72 9.72 6.72C10.92 6.72 11.9867 6.85333 12.92 7.12C13.88 7.36 14.6933 7.77333 15.36 8.36C16.0267 8.94667 16.5333 9.70666 16.88 10.64C17.2267 11.5733 17.4 12.7067 17.4 14.04C17.4 15.72 17.0667 17.0667 16.4 18.08C15.7333 19.0667 15 19.7333 14.2 20.08C14.6 20.2133 15.0267 20.4267 15.48 20.72C15.9333 20.9867 16.3467 21.3733 16.72 21.88C17.12 22.36 17.44 22.9867 17.68 23.76C17.9467 24.5067 18.08 25.44 18.08 26.56ZM44.45 35V15H47.25L47.49 17.04C47.9433 16.3467 48.5033 15.7867 49.17 15.36C49.8367 14.9333 50.6633 14.72 51.65 14.72C52.13 14.72 52.5433 14.7467 52.89 14.8C53.2367 14.8267 53.53 14.8667 53.77 14.92V18.48C53.4233 18.4 53.0233 18.32 52.57 18.24C52.1433 18.16 51.7433 18.12 51.37 18.12C50.7033 18.12 50.1433 18.2533 49.69 18.52C49.2633 18.7867 48.9033 19.1467 48.61 19.6C48.3433 20.0267 48.1433 20.52 48.01 21.08C47.9033 21.6133 47.85 22.1467 47.85 22.68V35H44.45ZM57.9656 35V15H60.7656L61.0456 16.8C62.3523 15.4133 63.9923 14.72 65.9656 14.72C67.1123 14.72 68.0723 14.8667 68.8456 15.16C69.619 15.4267 70.2323 15.8533 70.6856 16.44C71.1656 17 71.499 17.7333 71.6856 18.64C71.899 19.52 72.0056 20.5733 72.0056 21.8V35H68.6056V21.4C68.6056 20.1467 68.3923 19.2 67.9656 18.56C67.5656 17.92 66.699 17.6 65.3656 17.6C64.8056 17.6 64.2723 17.7067 63.7656 17.92C63.2856 18.1333 62.859 18.4133 62.4856 18.76C62.139 19.1067 61.859 19.48 61.6456 19.88C61.459 20.2533 61.3656 20.6267 61.3656 21V35H57.9656ZM93.2 27.6C93.2 30.2933 92.52 32.2533 91.16 33.48C89.8267 34.68 88.0133 35.28 85.72 35.28C83.4267 35.28 81.6 34.68 80.24 33.48C78.88 32.2533 78.2 30.2933 78.2 27.6V7H81.68V28.36C81.68 29.7733 82.0533 30.8 82.8 31.44C83.5467 32.0533 84.52 32.36 85.72 32.36C86.92 32.36 87.88 32.0533 88.6 31.44C89.3467 30.8 89.72 29.7733 89.72 28.36V7H93.2V27.6ZM99.6063 41.8V15H102.406L102.726 16.72C104.006 15.3867 105.58 14.72 107.446 14.72C109.793 14.72 111.433 15.48 112.366 17C113.3 18.4933 113.766 20.7333 113.766 23.72C113.766 25.9067 113.62 27.7467 113.326 29.24C113.033 30.7067 112.553 31.8933 111.886 32.8C111.22 33.68 110.34 34.32 109.246 34.72C108.18 35.0933 106.846 35.28 105.246 35.28C104.793 35.28 104.38 35.2667 104.006 35.24C103.633 35.2133 103.3 35.1733 103.006 35.12V41.8H99.6063ZM106.806 17.6C106.246 17.6 105.726 17.7067 105.246 17.92C104.793 18.1333 104.393 18.4133 104.046 18.76C103.726 19.1067 103.473 19.48 103.286 19.88C103.1 20.2533 103.006 20.6267 103.006 21V32.24C103.3 32.2933 103.66 32.3333 104.086 32.36C104.513 32.3867 105.033 32.4 105.646 32.4C106.606 32.4 107.38 32.2267 107.966 31.88C108.58 31.5333 109.046 31.0133 109.366 30.32C109.713 29.6267 109.953 28.7733 110.086 27.76C110.22 26.72 110.286 25.5067 110.286 24.12C110.286 22.84 110.22 21.7867 110.086 20.96C109.98 20.1333 109.78 19.4667 109.486 18.96C109.22 18.4533 108.86 18.1067 108.406 17.92C107.98 17.7067 107.446 17.6 106.806 17.6Z" fill="#A0AEC0"/>
<path d="M13.64 22.96L13.2259 23.2405L13.2322 23.2494L13.64 22.96ZM6.88 21.72V21.22H6.38V21.72H6.88ZM6.88 32.16H6.38V32.6256L6.84438 32.6587L6.88 32.16ZM8.08 32.24L8.11563 31.7413L8.11119 31.741L8.08 32.24ZM13.32 31.36L12.9545 31.0188L12.9482 31.0256L12.9422 31.0325L13.32 31.36ZM14.2 29.68L14.6794 29.822L14.2 29.68ZM13.16 10.72L12.7393 10.9905L12.7463 11.0007L13.16 10.72ZM7.84 9.72L7.77531 9.22407L7.76397 9.22581L7.84 9.72ZM6.88 9.84L6.83473 9.34205L6.38 9.38339V9.84H6.88ZM6.88 18.84H6.38V19.34H6.88V18.84ZM11.44 18.72L11.3531 18.2276L11.3479 18.2286L11.44 18.72ZM12.64 18.16L12.3311 17.7668L12.324 17.7724L12.317 17.7783L12.64 18.16ZM13.56 16.84L14.0228 17.0293L14.0256 17.0222L13.56 16.84ZM17.52 30.76L17.9932 30.9216L17.9943 30.9181L17.52 30.76ZM15.92 33.44L16.2736 33.7936L15.92 33.44ZM13.44 34.88L13.5738 35.3618L13.5825 35.3593L13.44 34.88ZM7.72 35.24L7.73666 34.7403L7.72833 34.74H7.72V35.24ZM5.56 35.16L5.60153 34.6617L5.59562 34.6613L5.56 35.16ZM3.4 35H2.9V35.463L3.36165 35.4985L3.4 35ZM3.4 7L3.36438 6.50127L2.9 6.53444V7H3.4ZM5.6 6.84L5.63694 7.33867L5.64331 7.33812L5.6 6.84ZM7.64 6.76V7.26H7.64893L7.65785 7.25968L7.64 6.76ZM12.92 7.12L12.7826 7.60076L12.7907 7.60305L12.7987 7.60507L12.92 7.12ZM15.36 8.36L15.0297 8.73536H15.0297L15.36 8.36ZM16.4 18.08L16.8143 18.3599L16.8177 18.3548L16.4 18.08ZM14.2 20.08L14.0012 19.6212L12.8018 20.141L14.0419 20.5543L14.2 20.08ZM15.48 20.72L15.2084 21.1398L15.2173 21.1456L15.2265 21.151L15.48 20.72ZM16.72 21.88L16.3175 22.1766L16.3263 22.1886L16.3359 22.2001L16.72 21.88ZM17.68 23.76L17.2025 23.9082L17.2056 23.9183L17.2091 23.9282L17.68 23.76ZM15.02 26.84C15.02 25.0441 14.7244 23.6241 14.0478 22.6706L13.2322 23.2494C13.7289 23.9493 14.02 25.1159 14.02 26.84H15.02ZM14.054 22.6796C13.3625 21.6589 12.1497 21.22 10.6 21.22V22.22C11.9836 22.22 12.7975 22.6078 13.226 23.2404L14.054 22.6796ZM10.6 21.22H6.88V22.22H10.6V21.22ZM6.38 21.72V32.16H7.38V21.72H6.38ZM6.84438 32.6587C7.21938 32.6855 7.62087 32.7123 8.04881 32.739L8.11119 31.741C7.6858 31.7144 7.28729 31.6878 6.91562 31.6613L6.84438 32.6587ZM8.04438 32.7387C8.41938 32.7655 8.82087 32.7923 9.24881 32.819L9.31119 31.821C8.8858 31.7944 8.48729 31.7678 8.11562 31.7413L8.04438 32.7387ZM9.24881 32.819C9.68584 32.8463 10.1229 32.86 10.56 32.86V31.86C10.1438 31.86 9.72749 31.847 9.31119 31.821L9.24881 32.819ZM10.56 32.86C11.1354 32.86 11.6873 32.788 12.2138 32.6418L11.9462 31.6782C11.5127 31.7986 11.0513 31.86 10.56 31.86V32.86ZM12.2138 32.6418C12.7946 32.4804 13.291 32.1569 13.6978 31.6875L12.9422 31.0325C12.6557 31.3631 12.3254 31.5729 11.9462 31.6782L12.2138 32.6418ZM13.6855 31.7012C14.1277 31.2274 14.4518 30.5902 14.6794 29.822L13.7206 29.538C13.5215 30.2098 13.259 30.6926 12.9545 31.0188L13.6855 31.7012ZM14.6794 29.822C14.9118 29.0376 15.02 28.0376 15.02 26.84H14.02C14.02 27.989 13.9149 28.8824 13.7206 29.538L14.6794 29.822ZM14.42 14.32C14.42 12.6385 14.1667 11.313 13.5737 10.4392L12.7463 11.0007C13.1667 11.6203 13.42 12.6949 13.42 14.32H14.42ZM13.5806 10.4496C12.9592 9.48308 11.7458 9.1 10.2 9.1V10.1C11.6409 10.1 12.4008 10.4636 12.7394 10.9904L13.5806 10.4496ZM10.2 9.1C9.22878 9.1 8.41841 9.14032 7.77533 9.2242L7.90467 10.2158C8.48826 10.1397 9.25123 10.1 10.2 10.1V9.1ZM7.76397 9.22581C7.42566 9.27786 7.11606 9.31648 6.83473 9.34205L6.92527 10.3379C7.23061 10.3102 7.56101 10.2688 7.91603 10.2142L7.76397 9.22581ZM6.38 9.84V18.84H7.38V9.84H6.38ZM6.88 19.34H10.2V18.34H6.88V19.34ZM10.2 19.34C10.6334 19.34 11.0776 19.2967 11.5321 19.2114L11.3479 18.2286C10.949 18.3033 10.5666 18.34 10.2 18.34V19.34ZM11.5269 19.2124C12.0661 19.1172 12.5478 18.893 12.963 18.5417L12.317 17.7783C12.0388 18.0137 11.7206 18.1628 11.3531 18.2276L11.5269 19.2124ZM12.9489 18.5532C13.4094 18.1914 13.7606 17.6702 14.0228 17.0293L13.0972 16.6507C12.8794 17.1831 12.6173 17.542 12.3311 17.7668L12.9489 18.5532ZM14.0256 17.0222C14.2981 16.326 14.42 15.4152 14.42 14.32H13.42C13.42 15.3581 13.3019 16.1274 13.0944 16.6578L14.0256 17.0222ZM17.58 26.56C17.58 28.2071 17.3965 29.5494 17.0457 30.6019L17.9943 30.9181C18.3902 29.7306 18.58 28.2729 18.58 26.56H17.58ZM17.0468 30.5984C16.6938 31.6323 16.1969 32.4559 15.5664 33.0864L16.2736 33.7936C17.0297 33.0374 17.5995 32.0744 17.9932 30.9216L17.0468 30.5984ZM15.5664 33.0864C14.9639 33.689 14.212 34.1289 13.2975 34.4007L13.5825 35.3593C14.6414 35.0445 15.5428 34.5243 16.2736 33.7936L15.5664 33.0864ZM13.3062 34.3982C12.3976 34.6506 11.3637 34.78 10.2 34.78V35.78C11.4363 35.78 12.5624 35.6427 13.5738 35.3618L13.3062 34.3982ZM10.2 34.78C9.35186 34.78 8.53076 34.7667 7.73666 34.7403L7.70334 35.7397C8.50924 35.7666 9.34147 35.78 10.2 35.78V34.78ZM7.72 34.74C6.93066 34.74 6.22485 34.7137 5.60152 34.6617L5.51848 35.6583C6.17515 35.713 6.90934 35.74 7.72 35.74V34.74ZM5.59562 34.6613C4.8498 34.608 4.13071 34.5547 3.43835 34.5015L3.36165 35.4985C4.05596 35.5519 4.77687 35.6053 5.52438 35.6587L5.59562 34.6613ZM3.9 35V7H2.9V35H3.9ZM3.43562 7.49873C4.18271 7.44536 4.91648 7.392 5.63694 7.33863L5.56306 6.34136C4.84352 6.39466 4.11062 6.44797 3.36438 6.50127L3.43562 7.49873ZM5.64331 7.33812C6.2396 7.28627 6.90487 7.26 7.64 7.26V6.26C6.88179 6.26 6.18706 6.28706 5.55669 6.34188L5.64331 7.33812ZM7.65785 7.25968C8.39952 7.23319 9.08683 7.22 9.72 7.22V6.22C9.07317 6.22 8.37381 6.23347 7.62216 6.26032L7.65785 7.25968ZM9.72 7.22C10.884 7.22 11.903 7.34945 12.7826 7.60076L13.0574 6.63924C12.0703 6.35722 10.956 6.22 9.72 6.22V7.22ZM12.7987 7.60507C13.6903 7.82795 14.4295 8.20721 15.0297 8.73536L15.6903 7.98464C14.9571 7.33945 14.0697 6.89204 13.0413 6.63493L12.7987 7.60507ZM15.0297 8.73536C15.6271 9.26106 16.0899 9.94872 16.4113 10.8141L17.3487 10.4659C16.9768 9.46461 16.4263 8.63227 15.6903 7.98464L15.0297 8.73536ZM16.4113 10.8141C16.7316 11.6764 16.9 12.7472 16.9 14.04H17.9C17.9 12.6662 17.7218 11.4703 17.3487 10.4659L16.4113 10.8141ZM16.9 14.04C16.9 15.6586 16.5783 16.8993 15.9823 17.8052L16.8177 18.3548C17.555 17.2341 17.9 15.7814 17.9 14.04H16.9ZM15.9857 17.8001C15.3535 18.7357 14.6873 19.3239 14.0012 19.6212L14.3988 20.5388C15.3127 20.1428 16.1132 19.3976 16.8143 18.3599L15.9857 17.8001ZM14.0419 20.5543C14.3926 20.6712 14.7811 20.8633 15.2084 21.1398L15.7516 20.3002C15.2723 19.99 14.8074 19.7554 14.3581 19.6057L14.0419 20.5543ZM15.2265 21.151C15.6113 21.3773 15.9765 21.7138 16.3175 22.1766L17.1225 21.5834C16.7168 21.0328 16.2554 20.596 15.7335 20.289L15.2265 21.151ZM16.3359 22.2001C16.6833 22.6169 16.9765 23.18 17.2025 23.9082L18.1575 23.6118C17.9035 22.7933 17.5567 22.1031 17.1041 21.5599L16.3359 22.2001ZM17.2091 23.9282C17.4504 24.6036 17.58 25.4756 17.58 26.56H18.58C18.58 25.4044 18.443 24.4097 18.1509 23.5918L17.2091 23.9282ZM44.45 35H43.95V35.5H44.45V35ZM44.45 15V14.5H43.95V15H44.45ZM47.25 15L47.7466 14.9416L47.6946 14.5H47.25V15ZM47.49 17.04L46.9934 17.0984L47.1544 18.4669L47.9085 17.3136L47.49 17.04ZM49.17 15.36L49.4395 15.7811L49.17 15.36ZM52.89 14.8L52.814 15.2942L52.8327 15.2971L52.8517 15.2985L52.89 14.8ZM53.77 14.92H54.27V14.5189L53.8785 14.4319L53.77 14.92ZM53.77 18.48L53.6576 18.9672L54.27 19.1085V18.48H53.77ZM52.57 18.24L52.4779 18.7315L52.4831 18.7324L52.57 18.24ZM49.69 18.52L49.4364 18.0889L49.425 18.096L49.69 18.52ZM48.61 19.6L48.1902 19.3283L48.186 19.335L48.61 19.6ZM48.01 21.08L47.5236 20.9642L47.5215 20.973L47.5197 20.9819L48.01 21.08ZM47.85 35V35.5H48.35V35H47.85ZM44.95 35V15H43.95V35H44.95ZM44.45 15.5H47.25V14.5H44.45V15.5ZM46.7534 15.0584L46.9934 17.0984L47.9866 16.9816L47.7466 14.9416L46.7534 15.0584ZM47.9085 17.3136C48.325 16.6766 48.8352 16.1679 49.4395 15.7811L48.9005 14.9389C48.1715 15.4054 47.5617 16.0167 47.0715 16.7664L47.9085 17.3136ZM49.4395 15.7811C50.008 15.4173 50.7353 15.22 51.65 15.22V14.22C50.5913 14.22 49.6654 14.4493 48.9005 14.9389L49.4395 15.7811ZM51.65 15.22C52.1131 15.22 52.4997 15.2458 52.814 15.2942L52.966 14.3058C52.587 14.2475 52.1469 14.22 51.65 14.22V15.22ZM52.8517 15.2985C53.1836 15.3241 53.4519 15.3615 53.6615 15.4081L53.8785 14.4319C53.6081 14.3718 53.2898 14.3293 52.9283 14.3015L52.8517 15.2985ZM53.27 14.92V18.48H54.27V14.92H53.27ZM53.8824 17.9928C53.5253 17.9104 53.1164 17.8287 52.6569 17.7476L52.4831 18.7324C52.9302 18.8113 53.3214 18.8896 53.6576 18.9672L53.8824 17.9928ZM52.6621 17.7486C52.2099 17.6638 51.7788 17.62 51.37 17.62V18.62C51.7079 18.62 52.0768 18.6562 52.4779 18.7314L52.6621 17.7486ZM51.37 17.62C50.6377 17.62 49.9847 17.7666 49.4365 18.089L49.9435 18.951C50.302 18.7401 50.769 18.62 51.37 18.62V17.62ZM49.425 18.096C48.9317 18.4043 48.5204 18.8181 48.1902 19.3284L49.0298 19.8716C49.2863 19.4752 49.5949 19.169 49.955 18.944L49.425 18.096ZM48.186 19.335C47.8868 19.8138 47.6677 20.3589 47.5236 20.9642L48.4964 21.1958C48.6189 20.6811 48.7999 20.2396 49.034 19.865L48.186 19.335ZM47.5197 20.9819C47.4067 21.5469 47.35 22.1131 47.35 22.68H48.35C48.35 22.1802 48.4 21.6797 48.5003 21.1781L47.5197 20.9819ZM47.35 22.68V35H48.35V22.68H47.35ZM47.85 34.5H44.45V35.5H47.85V34.5ZM57.9656 35H57.4656V35.5H57.9656V35ZM57.9656 15V14.5H57.4656V15H57.9656ZM60.7656 15L61.2597 14.9231L61.1939 14.5H60.7656V15ZM61.0456 16.8L60.5516 16.8769L60.7087 17.8867L61.4095 17.1429L61.0456 16.8ZM68.8456 15.16L68.6683 15.6275L68.6754 15.6302L68.6826 15.6327L68.8456 15.16ZM70.6856 16.44L70.29 16.7457L70.2977 16.7558L70.306 16.7654L70.6856 16.44ZM71.6856 18.64L71.1959 18.7408L71.1976 18.7493L71.1997 18.7578L71.6856 18.64ZM72.0056 35V35.5H72.5056V35H72.0056ZM68.6056 35H68.1056V35.5H68.6056V35ZM67.9656 18.56L67.5416 18.825L67.5455 18.8312L67.5496 18.8373L67.9656 18.56ZM63.7656 17.92L63.5716 17.4591L63.5626 17.4631L63.7656 17.92ZM62.4856 18.76L62.1454 18.3936L62.1386 18.3999L62.1321 18.4064L62.4856 18.76ZM61.6456 19.88L61.2043 19.6446L61.1984 19.6564L61.6456 19.88ZM61.3656 35V35.5H61.8656V35H61.3656ZM58.4656 35V15H57.4656V35H58.4656ZM57.9656 15.5H60.7656V14.5H57.9656V15.5ZM60.2716 15.0769L60.5516 16.8769L61.5397 16.7231L61.2597 14.9231L60.2716 15.0769ZM61.4095 17.1429C62.618 15.8605 64.1245 15.22 65.9656 15.22V14.22C63.8601 14.22 62.0866 14.9662 60.6817 16.4571L61.4095 17.1429ZM65.9656 15.22C67.0734 15.22 67.9689 15.3622 68.6683 15.6275L69.023 14.6925C68.1757 14.3711 67.1512 14.22 65.9656 14.22V15.22ZM68.6826 15.6327C69.3737 15.871 69.9024 16.2441 70.29 16.7457L71.0813 16.1343C70.5622 15.4626 69.8642 14.9823 69.0086 14.6873L68.6826 15.6327ZM70.306 16.7654C70.7185 17.2467 71.022 17.8963 71.1959 18.7408L72.1754 18.5392C71.9759 17.5703 71.6127 16.7533 71.0653 16.1146L70.306 16.7654ZM71.1997 18.7578C71.4011 19.5884 71.5056 20.6 71.5056 21.8H72.5056C72.5056 20.5466 72.3969 19.4516 72.1715 18.5222L71.1997 18.7578ZM71.5056 21.8V35H72.5056V21.8H71.5056ZM72.0056 34.5H68.6056V35.5H72.0056V34.5ZM69.1056 35V21.4H68.1056V35H69.1056ZM69.1056 21.4C69.1056 20.1043 68.8877 19.0417 68.3817 18.2826L67.5496 18.8373C67.8969 19.3583 68.1056 20.189 68.1056 21.4H69.1056ZM68.3896 18.295C67.8454 17.4242 66.7397 17.1 65.3656 17.1V18.1C66.6582 18.1 67.2859 18.4158 67.5416 18.825L68.3896 18.295ZM65.3656 17.1C64.7403 17.1 64.1408 17.2195 63.5716 17.4592L63.9597 18.3808C64.4037 18.1938 64.871 18.1 65.3656 18.1V17.1ZM63.5626 17.4631C63.0337 17.6981 62.5604 18.0082 62.1454 18.3936L62.8259 19.1264C63.1575 18.8184 63.5375 18.5685 63.9687 18.3769L63.5626 17.4631ZM62.1321 18.4064C61.7534 18.7852 61.4428 19.1978 61.2044 19.6447L62.0868 20.1153C62.2751 19.7622 62.5246 19.4282 62.8392 19.1136L62.1321 18.4064ZM61.1984 19.6564C60.9812 20.0909 60.8656 20.5403 60.8656 21H61.8656C61.8656 20.713 61.9367 20.4158 62.0928 20.1036L61.1984 19.6564ZM60.8656 21V35H61.8656V21H60.8656ZM61.3656 34.5H57.9656V35.5H61.3656V34.5ZM91.16 33.48L91.4945 33.8516L91.4949 33.8513L91.16 33.48ZM80.24 33.48L79.9051 33.8513L79.9092 33.8549L80.24 33.48ZM78.2 7V6.5H77.7V7H78.2ZM81.68 7H82.18V6.5H81.68V7ZM82.8 31.44L82.4745 31.8197L82.4826 31.8264L82.8 31.44ZM88.6 31.44L88.9242 31.8206L88.9254 31.8196L88.6 31.44ZM89.72 7V6.5H89.22V7H89.72ZM93.2 7H93.7V6.5H93.2V7ZM92.7 27.6C92.7 30.2192 92.0386 32.0142 90.8251 33.1087L91.4949 33.8513C93.0014 32.4925 93.7 30.3675 93.7 27.6H92.7ZM90.8255 33.1084C89.6073 34.2047 87.9253 34.78 85.72 34.78V35.78C88.1014 35.78 90.046 35.1553 91.4945 33.8516L90.8255 33.1084ZM85.72 34.78C83.5152 34.78 81.8173 34.2049 80.5708 33.1051L79.9092 33.8549C81.3827 35.1551 83.3381 35.78 85.72 35.78V34.78ZM80.5749 33.1087C79.3614 32.0142 78.7 30.2192 78.7 27.6H77.7C77.7 30.3675 78.3986 32.4925 79.9051 33.8513L80.5749 33.1087ZM78.7 27.6V7H77.7V27.6H78.7ZM78.2 7.5H81.68V6.5H78.2V7.5ZM81.18 7V28.36H82.18V7H81.18ZM81.18 28.36C81.18 29.8536 81.5754 31.0489 82.4746 31.8196L83.1254 31.0604C82.5313 30.5511 82.18 29.6931 82.18 28.36H81.18ZM82.4826 31.8264C83.3387 32.5296 84.4331 32.86 85.72 32.86V31.86C84.6069 31.86 83.7546 31.5771 83.1174 31.0536L82.4826 31.8264ZM85.72 32.86C87.006 32.86 88.0916 32.5299 88.9242 31.8206L88.2758 31.0594C87.6684 31.5768 86.834 31.86 85.72 31.86V32.86ZM88.9254 31.8196C89.8246 31.0489 90.22 29.8536 90.22 28.36H89.22C89.22 29.6931 88.8687 30.5511 88.2746 31.0604L88.9254 31.8196ZM90.22 28.36V7H89.22V28.36H90.22ZM89.72 7.5H93.2V6.5H89.72V7.5ZM92.7 7V27.6H93.7V7H92.7ZM99.6062 41.8H99.1062V42.3H99.6062V41.8ZM99.6062 15V14.5H99.1062V15H99.6062ZM102.406 15L102.898 14.9085L102.822 14.5H102.406V15ZM102.726 16.72L102.235 16.8115L102.413 17.7686L103.087 17.0663L102.726 16.72ZM112.366 17L111.94 17.2616L111.942 17.265L112.366 17ZM113.326 29.24L113.817 29.3381L113.817 29.3364L113.326 29.24ZM111.886 32.8L112.285 33.102L112.289 33.0962L111.886 32.8ZM109.246 34.72L109.411 35.192L109.418 35.1896L109.246 34.72ZM104.006 35.24L104.042 34.7413L104.006 35.24ZM103.006 35.12L103.096 34.6281L102.506 34.5209V35.12H103.006ZM103.006 41.8V42.3H103.506V41.8H103.006ZM105.246 17.92L105.043 17.463L105.033 17.4676L105.246 17.92ZM104.046 18.76L103.693 18.4064L103.686 18.4135L103.679 18.4209L104.046 18.76ZM103.286 19.88L103.734 20.1037L103.739 20.0914L103.286 19.88ZM103.006 32.24H102.506V32.6573L102.917 32.7319L103.006 32.24ZM104.086 32.36L104.055 32.859L104.086 32.36ZM107.966 31.88L107.72 31.4446L107.712 31.4495L107.966 31.88ZM109.366 30.32L108.919 30.0964L108.916 30.1034L108.912 30.1105L109.366 30.32ZM110.086 27.76L110.582 27.8252L110.582 27.8236L110.086 27.76ZM110.086 20.96L109.59 21.024L109.591 21.0318L109.593 21.0396L110.086 20.96ZM109.486 18.96L109.044 19.1929L109.048 19.2018L109.054 19.2105L109.486 18.96ZM108.406 17.92L108.183 18.3672L108.199 18.3754L108.216 18.3823L108.406 17.92ZM100.106 41.8V15H99.1062V41.8H100.106ZM99.6062 15.5H102.406V14.5H99.6062V15.5ZM101.915 15.0915L102.235 16.8115L103.218 16.6285L102.898 14.9085L101.915 15.0915ZM103.087 17.0663C104.272 15.8322 105.714 15.22 107.446 15.22V14.22C105.445 14.22 103.741 14.9411 102.366 16.3737L103.087 17.0663ZM107.446 15.22C109.681 15.22 111.126 15.9359 111.94 17.2616L112.792 16.7384C111.74 15.0241 109.905 14.22 107.446 14.22V15.22ZM111.942 17.265C112.802 18.641 113.266 20.7692 113.266 23.72H114.266C114.266 20.6974 113.797 18.3456 112.79 16.735L111.942 17.265ZM113.266 23.72C113.266 25.887 113.121 27.6925 112.836 29.1436L113.817 29.3364C114.118 27.8009 114.266 25.9263 114.266 23.72H113.266ZM112.836 29.1419C112.552 30.5594 112.095 31.672 111.483 32.5038L112.289 33.0962C113.011 32.1146 113.513 30.8539 113.817 29.3381L112.836 29.1419ZM111.488 32.4981C110.882 33.2973 110.083 33.8815 109.074 34.2504L109.418 35.1896C110.596 34.7585 111.557 34.0627 112.285 33.1019L111.488 32.4981ZM109.081 34.2481C108.085 34.5969 106.811 34.78 105.246 34.78V35.78C106.881 35.78 108.275 35.5898 109.411 35.1919L109.081 34.2481ZM105.246 34.78C104.802 34.78 104.401 34.7669 104.042 34.7413L103.971 35.7387C104.358 35.7664 104.783 35.78 105.246 35.78V34.78ZM104.042 34.7413C103.682 34.7156 103.367 34.6775 103.096 34.6281L102.917 35.6119C103.232 35.6692 103.584 35.7111 103.971 35.7387L104.042 34.7413ZM102.506 35.12V41.8H103.506V35.12H102.506ZM103.006 41.3H99.6062V42.3H103.006V41.3ZM106.806 17.1C106.181 17.1 105.591 17.2195 105.043 17.4631L105.449 18.3769C105.861 18.1938 106.312 18.1 106.806 18.1V17.1ZM105.033 17.4676C104.529 17.705 104.081 18.0181 103.693 18.4064L104.4 19.1136C104.705 18.8086 105.057 18.5617 105.459 18.3724L105.033 17.4676ZM103.679 18.4209C103.326 18.8028 103.043 19.2187 102.833 19.6686L103.739 20.0914C103.903 19.7413 104.126 19.4105 104.414 19.0991L103.679 18.4209ZM102.839 19.6564C102.622 20.0909 102.506 20.5403 102.506 21H103.506C103.506 20.713 103.577 20.4158 103.733 20.1036L102.839 19.6564ZM102.506 21V32.24H103.506V21H102.506ZM102.917 32.7319C103.236 32.7899 103.616 32.8316 104.055 32.859L104.117 31.861C103.703 31.8351 103.363 31.7968 103.096 31.7481L102.917 32.7319ZM104.055 32.859C104.495 32.8866 105.027 32.9 105.646 32.9V31.9C105.039 31.9 104.53 31.8868 104.117 31.861L104.055 32.859ZM105.646 32.9C106.661 32.9 107.532 32.7176 108.221 32.3105L107.712 31.4495C107.227 31.7358 106.552 31.9 105.646 31.9V32.9ZM108.212 32.3153C108.925 31.9126 109.46 31.3096 109.82 30.5295L108.912 30.1105C108.632 30.717 108.235 31.154 107.72 31.4447L108.212 32.3153ZM109.813 30.5436C110.191 29.7876 110.444 28.8772 110.582 27.8252L109.591 27.6948C109.462 28.6695 109.234 29.4658 108.919 30.0964L109.813 30.5436ZM110.582 27.8236C110.719 26.757 110.786 25.5216 110.786 24.12H109.786C109.786 25.4917 109.72 26.683 109.59 27.6964L110.582 27.8236ZM110.786 24.12C110.786 22.8257 110.719 21.7433 110.58 20.8804L109.593 21.0396C109.72 21.8301 109.786 22.8543 109.786 24.12H110.786ZM110.582 20.896C110.47 20.0293 110.256 19.2924 109.919 18.7095L109.054 19.2105C109.303 19.641 109.489 20.2373 109.59 21.024L110.582 20.896ZM109.929 18.7271C109.617 18.1351 109.176 17.6962 108.597 17.4577L108.216 18.3823C108.543 18.5171 108.822 18.7716 109.044 19.1929L109.929 18.7271ZM108.63 17.4728C108.114 17.215 107.499 17.1 106.806 17.1V18.1C107.394 18.1 107.845 18.1984 108.183 18.3672L108.63 17.4728Z" fill="#A0AEC0"/>
<path d="M34.88 53.832C34.88 54.408 34.6933 54.9013 34.32 55.312C33.952 55.7227 33.5173 55.9893 33.016 56.112C33.2827 56.2133 33.4987 56.3547 33.664 56.536C33.8293 56.7173 33.9707 56.944 34.088 57.216L34.688 58.56C34.784 58.768 34.8853 58.9653 34.992 59.152C35.0987 59.3333 35.2133 59.48 35.336 59.592C35.2293 59.7413 35.0693 59.8667 34.856 59.968C34.648 60.064 34.432 60.112 34.208 60.112C33.9307 60.112 33.7173 60.04 33.568 59.896C33.4187 59.752 33.28 59.536 33.152 59.248L32.376 57.472C32.2427 57.1627 32.0773 56.936 31.88 56.792C31.688 56.648 31.3947 56.576 31 56.576H30.016V60C29.8827 60.0267 29.7413 60.0427 29.592 60.048C29.448 60.0587 29.312 60.064 29.184 60.064C29.0667 60.064 28.928 60.0587 28.768 60.048C28.608 60.0427 28.4667 60.0267 28.344 60V51.352L28.432 51.264C28.9973 51.248 29.5307 51.2347 30.032 51.224C30.5387 51.2133 31.0507 51.208 31.568 51.208C32.5547 51.208 33.352 51.424 33.96 51.856C34.5733 52.2827 34.88 52.9413 34.88 53.832ZM30.016 52.472V55.272C30.288 55.272 30.5547 55.2693 30.816 55.264C31.0773 55.2587 31.2907 55.256 31.456 55.256C31.8987 55.256 32.24 55.1867 32.48 55.048C32.7253 54.904 32.896 54.7253 32.992 54.512C33.088 54.2933 33.136 54.0747 33.136 53.856C33.136 53.632 33.088 53.416 32.992 53.208C32.896 53 32.728 52.8293 32.488 52.696C32.2533 52.5573 31.9253 52.488 31.504 52.488C31.2907 52.488 31.048 52.488 30.776 52.488C30.504 52.4827 30.2507 52.4773 30.016 52.472ZM43.238 58.624C43.238 59.1467 43.1553 59.5093 42.99 59.712C42.8247 59.9093 42.5527 60.008 42.174 60.008H38.07C37.7713 60.008 37.534 59.92 37.358 59.744C37.182 59.568 37.094 59.3253 37.094 59.016V51.36L37.182 51.272H42.974C43.0007 51.3893 43.0167 51.504 43.022 51.616C43.0273 51.728 43.03 51.832 43.03 51.928C43.03 52.024 43.0193 52.1387 42.998 52.272C42.9767 52.4 42.9447 52.5253 42.902 52.648H39.662C39.5553 52.648 39.4167 52.648 39.246 52.648C39.0807 52.648 38.9127 52.6453 38.742 52.64C38.742 52.768 38.7447 52.8987 38.75 53.032C38.7553 53.16 38.758 53.3067 38.758 53.472V54.904C38.9287 54.904 39.0967 54.904 39.262 54.904C39.4273 54.8987 39.5607 54.896 39.662 54.896H42.182C42.214 55.0027 42.2353 55.12 42.246 55.248C42.2567 55.376 42.262 55.4827 42.262 55.568C42.262 55.664 42.2567 55.776 42.246 55.904C42.2353 56.0267 42.214 56.1413 42.182 56.248H39.662C39.5607 56.248 39.4273 56.248 39.262 56.248C39.0967 56.248 38.9287 56.248 38.758 56.248V57.928C38.758 58.0667 38.7553 58.1973 38.75 58.32C38.7447 58.4373 38.742 58.5467 38.742 58.648C38.886 58.6427 39.03 58.6373 39.174 58.632C39.3233 58.6267 39.502 58.624 39.71 58.624H43.238ZM50.2533 54.696C50.2479 54.296 50.1893 53.9227 50.0773 53.576C49.9706 53.224 49.7813 52.9413 49.5093 52.728C49.2373 52.5147 48.8533 52.408 48.3573 52.408C46.8959 52.408 46.1653 53.496 46.1653 55.672C46.1653 56.7387 46.3786 57.5253 46.8053 58.032C47.2373 58.5387 47.7839 58.792 48.4453 58.792C48.8613 58.792 49.2773 58.7067 49.6933 58.536C50.1146 58.36 50.5253 58.1227 50.9253 57.824C51.1066 57.9307 51.2773 58.0933 51.4373 58.312C51.5973 58.5253 51.6986 58.7227 51.7413 58.904C51.3359 59.2667 50.8319 59.576 50.2293 59.832C49.6266 60.0827 48.9493 60.208 48.1973 60.208C47.4986 60.208 46.9066 60.08 46.4213 59.824C45.9413 59.5627 45.5546 59.216 45.2613 58.784C44.9679 58.3467 44.7546 57.8587 44.6213 57.32C44.4879 56.7813 44.4213 56.2293 44.4213 55.664C44.4213 54.5867 44.6079 53.7093 44.9813 53.032C45.3546 52.3547 45.8426 51.8587 46.4453 51.544C47.0479 51.224 47.7013 51.064 48.4053 51.064C49.1946 51.064 49.8426 51.2053 50.3493 51.488C50.8613 51.7653 51.2399 52.1173 51.4853 52.544C51.7306 52.9653 51.8533 53.3893 51.8533 53.816C51.8533 54.104 51.7813 54.336 51.6373 54.512C51.4933 54.6827 51.2399 54.768 50.8773 54.768C50.7706 54.768 50.6666 54.7627 50.5653 54.752C50.4693 54.736 50.3653 54.7173 50.2533 54.696ZM52.9056 55.64C52.9056 54.744 53.0603 53.952 53.3696 53.264C53.6843 52.5707 54.143 52.032 54.7456 51.648C55.3483 51.2587 56.0923 51.064 56.9776 51.064C57.8736 51.064 58.623 51.2587 59.2256 51.648C59.8336 52.032 60.2896 52.568 60.5936 53.256C60.903 53.944 61.0576 54.7387 61.0576 55.64C61.0576 56.5413 60.9003 57.336 60.5856 58.024C60.2763 58.712 59.8176 59.248 59.2096 59.632C58.607 60.016 57.863 60.208 56.9776 60.208C56.087 60.208 55.3403 60.0133 54.7376 59.624C54.135 59.2347 53.679 58.696 53.3696 58.008C53.0603 57.32 52.9056 56.5307 52.9056 55.64ZM54.6496 55.64C54.6496 56.0027 54.6816 56.376 54.7456 56.76C54.8096 57.144 54.9243 57.4987 55.0896 57.824C55.2603 58.1493 55.4976 58.4133 55.8016 58.616C56.1056 58.8187 56.5003 58.92 56.9856 58.92C57.4656 58.92 57.8576 58.8187 58.1616 58.616C58.4656 58.4133 58.7003 58.1493 58.8656 57.824C59.0363 57.4987 59.151 57.144 59.2096 56.76C59.2736 56.376 59.3056 56.0027 59.3056 55.64C59.3056 55.2773 59.2736 54.904 59.2096 54.52C59.151 54.136 59.0363 53.7813 58.8656 53.456C58.7003 53.1253 58.4656 52.8587 58.1616 52.656C57.8576 52.4533 57.4656 52.352 56.9856 52.352C56.5003 52.352 56.1056 52.4533 55.8016 52.656C55.4976 52.8587 55.2603 53.1253 55.0896 53.456C54.9243 53.7813 54.8096 54.136 54.7456 54.52C54.6816 54.904 54.6496 55.2773 54.6496 55.64ZM69.5831 53.832C69.5831 54.408 69.3965 54.9013 69.0231 55.312C68.6551 55.7227 68.2205 55.9893 67.7191 56.112C67.9858 56.2133 68.2018 56.3547 68.3671 56.536C68.5325 56.7173 68.6738 56.944 68.7911 57.216L69.3911 58.56C69.4871 58.768 69.5885 58.9653 69.6951 59.152C69.8018 59.3333 69.9165 59.48 70.0391 59.592C69.9325 59.7413 69.7725 59.8667 69.5591 59.968C69.3511 60.064 69.1351 60.112 68.9111 60.112C68.6338 60.112 68.4205 60.04 68.2711 59.896C68.1218 59.752 67.9831 59.536 67.8551 59.248L67.0791 57.472C66.9458 57.1627 66.7805 56.936 66.5831 56.792C66.3911 56.648 66.0978 56.576 65.7031 56.576H64.7191V60C64.5858 60.0267 64.4445 60.0427 64.2951 60.048C64.1511 60.0587 64.0151 60.064 63.8871 60.064C63.7698 60.064 63.6311 60.0587 63.4711 60.048C63.3111 60.0427 63.1698 60.0267 63.0471 60V51.352L63.1351 51.264C63.7005 51.248 64.2338 51.2347 64.7351 51.224C65.2418 51.2133 65.7538 51.208 66.2711 51.208C67.2578 51.208 68.0551 51.424 68.6631 51.856C69.2765 52.2827 69.5831 52.9413 69.5831 53.832ZM64.7191 52.472V55.272C64.9911 55.272 65.2578 55.2693 65.5191 55.264C65.7805 55.2587 65.9938 55.256 66.1591 55.256C66.6018 55.256 66.9431 55.1867 67.1831 55.048C67.4285 54.904 67.5991 54.7253 67.6951 54.512C67.7911 54.2933 67.8391 54.0747 67.8391 53.856C67.8391 53.632 67.7911 53.416 67.6951 53.208C67.5991 53 67.4311 52.8293 67.1911 52.696C66.9565 52.5573 66.6285 52.488 66.2071 52.488C65.9938 52.488 65.7511 52.488 65.4791 52.488C65.2071 52.4827 64.9538 52.4773 64.7191 52.472ZM79.1091 55.648C79.1091 57.0933 78.7865 58.1893 78.1411 58.936C77.4958 59.6827 76.4478 60.056 74.9971 60.056C74.6025 60.056 74.2451 60.0533 73.9251 60.048C73.6105 60.0427 73.2931 60.0373 72.9731 60.032C72.6531 60.0267 72.2905 60.0187 71.8851 60.008L71.7971 59.92V51.352L71.8851 51.264C72.2958 51.2533 72.6611 51.2453 72.9811 51.24C73.3011 51.2293 73.6185 51.2213 73.9331 51.216C74.2478 51.2107 74.6025 51.208 74.9971 51.208C76.4425 51.208 77.4878 51.5947 78.1331 52.368C78.7838 53.136 79.1091 54.2293 79.1091 55.648ZM77.3811 55.648C77.3811 55.2907 77.3518 54.9307 77.2931 54.568C77.2345 54.2 77.1225 53.864 76.9571 53.56C76.7918 53.256 76.5491 53.0107 76.2291 52.824C75.9145 52.6373 75.4985 52.544 74.9811 52.544C74.6931 52.544 74.4345 52.544 74.2051 52.544C73.9758 52.5387 73.7305 52.5333 73.4691 52.528V58.752C73.7358 58.752 73.9811 58.7493 74.2051 58.744C74.4345 58.7387 74.6931 58.736 74.9811 58.736C75.4985 58.736 75.9145 58.6453 76.2291 58.464C76.5491 58.2773 76.7918 58.032 76.9571 57.728C77.1225 57.424 77.2345 57.0907 77.2931 56.728C77.3518 56.3653 77.3811 56.0053 77.3811 55.648ZM80.2529 59.28C80.2582 59.0613 80.3249 58.8267 80.4529 58.576C80.5809 58.3253 80.7329 58.1413 80.9089 58.024C81.2769 58.232 81.6955 58.4267 82.1649 58.608C82.6342 58.784 83.1409 58.8693 83.6849 58.864C84.1275 58.8587 84.5089 58.7547 84.8289 58.552C85.1489 58.344 85.3089 58.064 85.3089 57.712C85.3089 57.168 84.9115 56.7653 84.1169 56.504L82.6049 55.936C81.9755 55.7227 81.4662 55.4347 81.0769 55.072C80.6929 54.704 80.5009 54.2267 80.5009 53.64C80.5009 52.92 80.7809 52.3147 81.3409 51.824C81.9009 51.328 82.6875 51.0747 83.7009 51.064C84.2555 51.0587 84.8075 51.1253 85.3569 51.264C85.9062 51.3973 86.3675 51.552 86.7409 51.728C86.7409 51.968 86.6875 52.208 86.5809 52.448C86.4795 52.6827 86.3382 52.8693 86.1569 53.008C85.7782 52.832 85.3622 52.6907 84.9089 52.584C84.4555 52.4773 84.0422 52.4267 83.6689 52.432C83.2262 52.4373 82.8795 52.5387 82.6289 52.736C82.3835 52.928 82.2609 53.1787 82.2609 53.488C82.2609 53.744 82.3569 53.9387 82.5489 54.072C82.7462 54.2053 83.0235 54.336 83.3809 54.464L84.8449 55.024C85.4902 55.248 86.0262 55.5707 86.4529 55.992C86.8849 56.408 87.1009 56.9253 87.1009 57.544C87.1009 58.3493 86.7889 58.992 86.1649 59.472C85.5462 59.952 84.7222 60.1973 83.6929 60.208C82.9195 60.2133 82.2395 60.1173 81.6529 59.92C81.0662 59.7173 80.5995 59.504 80.2529 59.28Z" fill="#A0AEC0"/>
</g>
</svg>
