<svg width="118" height="66" viewBox="0 0 118 66" fill="none" xmlns="http://www.w3.org/2000/svg">
<circle cx="59" cy="20" r="20" fill="currentColor"/>
<path fill-rule="evenodd" clip-rule="evenodd" d="M63.2285 12.8039C64.3372 12.2412 64.5923 11.1916 64.6055 10.3918C64.6107 10.0462 65.0777 9.88941 65.3037 10.1656C65.9894 11.0026 66.8569 12.4367 66.8569 14.326C66.8569 14.8668 66.7932 15.3367 66.682 15.7441C67.8255 17.321 68.4998 19.2604 68.4998 21.3573C68.4998 26.6434 64.2145 30.9287 58.9284 30.9287C53.6422 30.9287 49.3569 26.6434 49.3569 21.3573C49.3569 17.0954 52.1424 13.4841 55.9921 12.2447C56.2945 11.933 56.6314 11.5887 57.0064 11.2055C57.2917 10.9139 57.5991 10.5997 57.9301 10.2603C58.9988 9.27069 59.2189 8.29073 59.2059 7.62014C59.1994 7.25289 59.6396 7.02373 59.9829 7.20826C60.9878 7.74618 62.498 8.73397 62.9507 9.99857C63.2504 10.8324 63.2277 11.7177 62.887 12.6403C63.0021 12.6926 63.1159 12.7472 63.2285 12.8039ZM61.8566 21.429C61.8566 23.007 60.5774 24.2861 58.9994 24.2861C57.4215 24.2861 56.1423 23.007 56.1423 21.429C56.1423 19.851 57.4215 18.5719 58.9994 18.5719C60.5774 18.5719 61.8566 19.851 61.8566 21.429Z" fill="white"/>
<path opacity="0.8" d="M1.036 62V52.2H4.48C5.17067 52.2 5.74 52.312 6.188 52.536C6.64533 52.7507 6.986 53.0493 7.21 53.432C7.434 53.8053 7.546 54.2253 7.546 54.692C7.546 55.3267 7.37333 55.826 7.028 56.19C6.692 56.554 6.286 56.806 5.81 56.946C6.174 57.0113 6.50533 57.156 6.804 57.38C7.10267 57.604 7.336 57.884 7.504 58.22C7.68133 58.556 7.77 58.9247 7.77 59.326C7.77 59.8207 7.64867 60.2733 7.406 60.684C7.16333 61.0853 6.804 61.4073 6.328 61.65C5.852 61.8833 5.27333 62 4.592 62H1.036ZM2.212 56.484H4.396C5.02133 56.484 5.502 56.3393 5.838 56.05C6.174 55.7513 6.342 55.3407 6.342 54.818C6.342 54.3233 6.174 53.9267 5.838 53.628C5.51133 53.3293 5.01667 53.18 4.354 53.18H2.212V56.484ZM2.212 61.02H4.466C5.138 61.02 5.656 60.866 6.02 60.558C6.384 60.2407 6.566 59.802 6.566 59.242C6.566 58.6913 6.37467 58.2527 5.992 57.926C5.60933 57.59 5.09133 57.422 4.438 57.422H2.212V61.02ZM11.9219 62.168C11.1005 62.168 10.4472 61.9207 9.96188 61.426C9.47654 60.922 9.23388 60.152 9.23388 59.116V55.056H10.4099V58.99C10.4099 60.4367 11.0025 61.16 12.1879 61.16C12.7945 61.16 13.2939 60.9453 13.6859 60.516C14.0872 60.0773 14.2879 59.4567 14.2879 58.654V55.056H15.4639V62H14.3999L14.3159 60.754C14.1012 61.1927 13.7792 61.538 13.3499 61.79C12.9299 62.042 12.4539 62.168 11.9219 62.168ZM17.3996 62V55.056H18.4636L18.5616 56.386C18.7763 55.9287 19.1029 55.5647 19.5416 55.294C19.9803 55.0233 20.5216 54.888 21.1656 54.888V56.12H20.8436C20.4329 56.12 20.0549 56.1947 19.7096 56.344C19.3643 56.484 19.0889 56.7267 18.8836 57.072C18.6783 57.4173 18.5756 57.8933 18.5756 58.5V62H17.3996ZM22.4855 62V55.056H23.5495L23.6195 56.302C23.8435 55.8633 24.1655 55.518 24.5855 55.266C25.0055 55.014 25.4815 54.888 26.0135 54.888C26.8349 54.888 27.4882 55.14 27.9735 55.644C28.4682 56.1387 28.7155 56.904 28.7155 57.94V62H27.5395V58.066C27.5395 56.6193 26.9422 55.896 25.7475 55.896C25.1502 55.896 24.6509 56.1153 24.2495 56.554C23.8575 56.9833 23.6615 57.5993 23.6615 58.402V62H22.4855ZM37.8143 62.168C37.1423 62.168 36.531 62.0373 35.9803 61.776C35.439 61.5053 35.005 61.09 34.6783 60.53C34.3517 59.97 34.1883 59.256 34.1883 58.388V52.2H35.3643V58.402C35.3643 59.354 35.593 60.0447 36.0503 60.474C36.5077 60.9033 37.105 61.118 37.8423 61.118C38.5797 61.118 39.1723 60.9033 39.6203 60.474C40.0683 60.0447 40.2923 59.354 40.2923 58.402V52.2H41.4683V58.388C41.4683 59.256 41.305 59.97 40.9783 60.53C40.6517 61.09 40.213 61.5053 39.6623 61.776C39.1117 62.0373 38.4957 62.168 37.8143 62.168ZM43.3898 65.08V55.056H44.4538L44.5658 56.204C44.7898 55.868 45.1072 55.5647 45.5178 55.294C45.9378 55.0233 46.4698 54.888 47.1138 54.888C47.8045 54.888 48.4065 55.0467 48.9198 55.364C49.4332 55.6813 49.8298 56.1153 50.1098 56.666C50.3992 57.2167 50.5438 57.842 50.5438 58.542C50.5438 59.242 50.3992 59.8673 50.1098 60.418C49.8298 60.9593 49.4285 61.3887 48.9058 61.706C48.3925 62.014 47.7905 62.168 47.0998 62.168C46.5305 62.168 46.0218 62.0513 45.5738 61.818C45.1352 61.5847 44.7992 61.258 44.5658 60.838V65.08H43.3898ZM46.9738 61.146C47.4405 61.146 47.8512 61.0387 48.2058 60.824C48.5605 60.6 48.8405 60.292 49.0458 59.9C49.2512 59.508 49.3538 59.0507 49.3538 58.528C49.3538 58.0053 49.2512 57.548 49.0458 57.156C48.8405 56.764 48.5605 56.4607 48.2058 56.246C47.8512 56.022 47.4405 55.91 46.9738 55.91C46.5072 55.91 46.0965 56.022 45.7418 56.246C45.3872 56.4607 45.1072 56.764 44.9018 57.156C44.6965 57.548 44.5938 58.0053 44.5938 58.528C44.5938 59.0507 44.6965 59.508 44.9018 59.9C45.1072 60.292 45.3872 60.6 45.7418 60.824C46.0965 61.0387 46.5072 61.146 46.9738 61.146ZM55.9559 62V52.2H59.1199C59.8853 52.2 60.5106 52.326 60.9959 52.578C61.4813 52.83 61.8406 53.1753 62.0739 53.614C62.3073 54.0527 62.4239 54.538 62.4239 55.07C62.4239 55.686 62.2559 56.2413 61.9199 56.736C61.5933 57.2307 61.0799 57.5807 60.3799 57.786L62.5219 62H61.1359L59.1479 57.954H59.0639H57.1319V62H55.9559ZM57.1319 57.03H59.0359C59.7919 57.03 60.3426 56.848 60.6879 56.484C61.0333 56.12 61.2059 55.6533 61.2059 55.084C61.2059 54.5053 61.0333 54.048 60.6879 53.712C60.3519 53.3667 59.7966 53.194 59.0219 53.194H57.1319V57.03ZM66.8829 62.168C66.2203 62.168 65.6323 62.0187 65.1189 61.72C64.6056 61.412 64.1996 60.9873 63.9009 60.446C63.6116 59.9047 63.4669 59.2653 63.4669 58.528C63.4669 57.8 63.6116 57.1653 63.9009 56.624C64.1903 56.0733 64.5916 55.6487 65.1049 55.35C65.6276 55.042 66.2296 54.888 66.9109 54.888C67.5829 54.888 68.1616 55.042 68.6469 55.35C69.1416 55.6487 69.5196 56.0453 69.7809 56.54C70.0423 57.0347 70.1729 57.5667 70.1729 58.136C70.1729 58.2387 70.1683 58.3413 70.1589 58.444C70.1589 58.5467 70.1589 58.6633 70.1589 58.794H64.6289C64.6569 59.326 64.7783 59.7693 64.9929 60.124C65.2169 60.4693 65.4923 60.7307 65.8189 60.908C66.1549 61.0853 66.5096 61.174 66.8829 61.174C67.3683 61.174 67.7743 61.062 68.1009 60.838C68.4276 60.614 68.6656 60.3107 68.8149 59.928H69.9769C69.7903 60.572 69.4309 61.1087 68.8989 61.538C68.3763 61.958 67.7043 62.168 66.8829 62.168ZM66.8829 55.882C66.3229 55.882 65.8236 56.0547 65.3849 56.4C64.9556 56.736 64.7083 57.2307 64.6429 57.884H69.0109C68.9829 57.2587 68.7683 56.7687 68.3669 56.414C67.9656 56.0593 67.4709 55.882 66.8829 55.882ZM74.9236 62.168C74.261 62.168 73.6636 62.0187 73.1316 61.72C72.609 61.412 72.1936 60.9873 71.8856 60.446C71.587 59.8953 71.4376 59.256 71.4376 58.528C71.4376 57.8 71.587 57.1653 71.8856 56.624C72.1936 56.0733 72.609 55.6487 73.1316 55.35C73.6636 55.042 74.261 54.888 74.9236 54.888C75.745 54.888 76.4356 55.1027 76.9956 55.532C77.565 55.9613 77.9243 56.5353 78.0736 57.254H76.8696C76.7763 56.8247 76.5476 56.4933 76.1836 56.26C75.8196 56.0173 75.395 55.896 74.9096 55.896C74.5176 55.896 74.149 55.994 73.8036 56.19C73.4583 56.386 73.1783 56.68 72.9636 57.072C72.749 57.464 72.6416 57.9493 72.6416 58.528C72.6416 59.1067 72.749 59.592 72.9636 59.984C73.1783 60.376 73.4583 60.6747 73.8036 60.88C74.149 61.076 74.5176 61.174 74.9096 61.174C75.395 61.174 75.8196 61.0573 76.1836 60.824C76.5476 60.5813 76.7763 60.2407 76.8696 59.802H78.0736C77.9336 60.502 77.579 61.0713 77.0096 61.51C76.4403 61.9487 75.745 62.168 74.9236 62.168ZM82.88 62.168C82.2267 62.168 81.6387 62.0187 81.116 61.72C80.5933 61.4213 80.178 61.0013 79.87 60.46C79.5713 59.9093 79.422 59.2653 79.422 58.528C79.422 57.7907 79.576 57.1513 79.884 56.61C80.192 56.0593 80.6073 55.6347 81.13 55.336C81.662 55.0373 82.2547 54.888 82.908 54.888C83.5613 54.888 84.1493 55.0373 84.672 55.336C85.1947 55.6347 85.6053 56.0593 85.904 56.61C86.212 57.1513 86.366 57.7907 86.366 58.528C86.366 59.2653 86.212 59.9093 85.904 60.46C85.596 61.0013 85.176 61.4213 84.644 61.72C84.1213 62.0187 83.5333 62.168 82.88 62.168ZM82.88 61.16C83.2813 61.16 83.6547 61.062 84 60.866C84.3453 60.67 84.6253 60.376 84.84 59.984C85.0547 59.592 85.162 59.1067 85.162 58.528C85.162 57.9493 85.0547 57.464 84.84 57.072C84.6347 56.68 84.3593 56.386 84.014 56.19C83.6687 55.994 83.3 55.896 82.908 55.896C82.5067 55.896 82.1333 55.994 81.788 56.19C81.4427 56.386 81.1627 56.68 80.948 57.072C80.7333 57.464 80.626 57.9493 80.626 58.528C80.626 59.1067 80.7333 59.592 80.948 59.984C81.1627 60.376 81.438 60.67 81.774 60.866C82.1193 61.062 82.488 61.16 82.88 61.16ZM88.0012 62V55.056H89.0652L89.1632 56.386C89.3778 55.9287 89.7045 55.5647 90.1432 55.294C90.5818 55.0233 91.1232 54.888 91.7672 54.888V56.12H91.4452C91.0345 56.12 90.6565 56.1947 90.3112 56.344C89.9658 56.484 89.6905 56.7267 89.4852 57.072C89.2798 57.4173 89.1772 57.8933 89.1772 58.5V62H88.0012ZM95.9773 62.168C95.2867 62.168 94.68 62.0093 94.1573 61.692C93.644 61.3747 93.2427 60.9407 92.9533 60.39C92.6733 59.8393 92.5333 59.214 92.5333 58.514C92.5333 57.814 92.678 57.1933 92.9673 56.652C93.2567 56.1013 93.658 55.672 94.1713 55.364C94.6847 55.0467 95.2913 54.888 95.9913 54.888C96.5607 54.888 97.0647 55.0047 97.5033 55.238C97.942 55.4713 98.2827 55.798 98.5253 56.218V51.92H99.7013V62H98.6373L98.5253 60.852C98.3013 61.188 97.9793 61.4913 97.5593 61.762C97.1393 62.0327 96.612 62.168 95.9773 62.168ZM96.1033 61.146C96.57 61.146 96.9807 61.0387 97.3353 60.824C97.6993 60.6 97.9793 60.292 98.1753 59.9C98.3807 59.508 98.4833 59.0507 98.4833 58.528C98.4833 58.0053 98.3807 57.548 98.1753 57.156C97.9793 56.764 97.6993 56.4607 97.3353 56.246C96.9807 56.022 96.57 55.91 96.1033 55.91C95.646 55.91 95.2353 56.022 94.8713 56.246C94.5167 56.4607 94.2367 56.764 94.0313 57.156C93.8353 57.548 93.7373 58.0053 93.7373 58.528C93.7373 59.0507 93.8353 59.508 94.0313 59.9C94.2367 60.292 94.5167 60.6 94.8713 60.824C95.2353 61.0387 95.646 61.146 96.1033 61.146ZM104.278 62.168C103.448 62.168 102.757 61.958 102.206 61.538C101.656 61.118 101.334 60.5487 101.24 59.83H102.444C102.519 60.194 102.71 60.5113 103.018 60.782C103.336 61.0433 103.76 61.174 104.292 61.174C104.787 61.174 105.151 61.0713 105.384 60.866C105.618 60.6513 105.734 60.3993 105.734 60.11C105.734 59.69 105.58 59.41 105.272 59.27C104.974 59.13 104.549 59.004 103.998 58.892C103.625 58.8173 103.252 58.71 102.878 58.57C102.505 58.43 102.192 58.234 101.94 57.982C101.688 57.7207 101.562 57.38 101.562 56.96C101.562 56.3533 101.786 55.8587 102.234 55.476C102.692 55.084 103.308 54.888 104.082 54.888C104.82 54.888 105.422 55.0747 105.888 55.448C106.364 55.812 106.64 56.3347 106.714 57.016H105.552C105.506 56.6613 105.352 56.386 105.09 56.19C104.838 55.9847 104.498 55.882 104.068 55.882C103.648 55.882 103.322 55.9707 103.088 56.148C102.864 56.3253 102.752 56.5587 102.752 56.848C102.752 57.128 102.897 57.3473 103.186 57.506C103.485 57.6647 103.886 57.8 104.39 57.912C104.82 58.0053 105.226 58.122 105.608 58.262C106 58.3927 106.318 58.5933 106.56 58.864C106.812 59.1253 106.938 59.508 106.938 60.012C106.948 60.6373 106.71 61.1553 106.224 61.566C105.748 61.9673 105.1 62.168 104.278 62.168Z" fill="#040404"/>
<path opacity="0.8" d="M112.554 49.474C111.846 49.474 111.216 49.318 110.664 49.006C110.124 48.694 109.698 48.262 109.386 47.71C109.086 47.158 108.936 46.534 108.936 45.838C108.936 45.142 109.086 44.518 109.386 43.966C109.698 43.414 110.124 42.982 110.664 42.67C111.216 42.346 111.846 42.184 112.554 42.184C113.25 42.184 113.868 42.346 114.408 42.67C114.948 42.982 115.368 43.414 115.668 43.966C115.98 44.518 116.136 45.142 116.136 45.838C116.136 46.534 115.98 47.158 115.668 47.71C115.368 48.262 114.948 48.694 114.408 49.006C113.868 49.318 113.25 49.474 112.554 49.474ZM112.554 48.826C113.418 48.826 114.114 48.55 114.642 47.998C115.17 47.434 115.434 46.714 115.434 45.838C115.434 44.962 115.17 44.248 114.642 43.696C114.114 43.132 113.418 42.85 112.554 42.85C111.666 42.85 110.958 43.132 110.43 43.696C109.902 44.248 109.638 44.962 109.638 45.838C109.638 46.714 109.902 47.434 110.43 47.998C110.958 48.55 111.666 48.826 112.554 48.826ZM111.114 47.746V43.876H112.824C113.232 43.876 113.55 43.984 113.778 44.2C114.018 44.404 114.138 44.692 114.138 45.064C114.138 45.352 114.054 45.598 113.886 45.802C113.73 45.994 113.514 46.126 113.238 46.198L114.282 47.728L113.274 47.746L112.338 46.234H111.96V47.746H111.114ZM111.96 45.55H112.752C112.908 45.55 113.034 45.514 113.13 45.442C113.238 45.37 113.292 45.25 113.292 45.082C113.292 44.926 113.238 44.812 113.13 44.74C113.034 44.668 112.908 44.632 112.752 44.632H111.96V45.55Z" fill="#040404"/>
</svg>
